# xmcd
#
# Track frame offsets:
#	150
#	11780
#	30543
#	46843
#	61713
#	77652
#	95242
#	108949
#	124505
#	142395
#	163975
#	183960
#	197809
#	210352
#	226238
#	242465
#	258436
#	277837
#
# Disc length: 3831 seconds
#
# Revision: 1
# Processed by: cddbd v1.5.2PL0 Copyright (c) Steve Scherf et al.
# Submitted via: audiograbber 1.83.01
#
DISCID=f00ef512
DTITLE=Bloodshot Records - Sampler 13
DYEAR=2013
DGENRE=Alt Country
TTITLE0=Barrence Whitfield and The Savages - The Corner Man
TTITLE1=Ha Ha Tonka - Colorful Kids
TTITLE2=Eddie Spaghetti - The Value Of Nothing
TTITLE3=Robbie Fulks - Long I Ride
TTITLE4=Luke Winslow-King - You and Me
TTITLE5=JC Brooks And The Uptown Sound - River
TTITLE6=Wayne 'The Train' Hancock - Ride
TTITLE7=Deadstring Brothers - Lucilles Honky Tonk
TTITLE8=Roger Knox And The Pine Valley Cosmonauts - Stranger In My Country
TTITLE9=Bottle Rockets - 1000 Dollar Car
TTITLE10=Lydia Loveless - Steve Earle
TTITLE11=Justin Townes Earle - Down On The Lower East Side
TTITLE12=Murder By Death - The Curse Of Elkhart
TTITLE13=Cory Branan - Survivor Blues
TTITLE14=Rosie Flores - Little But Im Loud
TTITLE15=Boby Bare Junior - Gun Show
TTITLE16=Scott H Biram - I Want My Mojo Back
TTITLE17=Dex Romweber Duo - Jungle Drums
EXTD=Hours of time-wasting tomfoolery!
EXTT0=
EXTT1=
EXTT2=
EXTT3=
EXTT4=
EXTT5=
EXTT6=
EXTT7=
EXTT8=
EXTT9=
EXTT10=
EXTT11=
EXTT12=
EXTT13=
EXTT14=
EXTT15=
EXTT16=
EXTT17=
PLAYORDER=
